<svg xmlns="http://www.w3.org/2000/svg" id="b" viewBox="0 0 329.21 139.19"><defs><style>.d{fill:#003d7c;}.e{fill:#ef7c00;}</style></defs><g id="c"><g><path class="e" d="M264.6,134.83c-2.54-2.18-6.72-6.17-8.53-8.17-4.35-4.72-5.99-8.53-5.99-14.88V56.24c0-5.44,1.09-9.07,4.36-12.88,2.18-2.54,6.17-6.71,8.17-8.53,4.72-4.35,8.53-5.99,14.88-5.99h24.68c8.89,0,15.06,5.26,20.69,11.98,2.18,2.54,5.44,7.62,6.35,9.98l-18.69,4.9c-3.45-5.26-7.44-8.71-8.89-8.71h-23.77c-.73,0-2.36,1.27-4.9,3.81-2.36,2.36-3.81,4.17-3.81,4.9v56.62c0,.73,1.27,2.36,3.81,4.9,2.36,2.36,4.17,3.81,4.9,3.81h23.59c1.63,0,5.63-3.45,9.07-8.71l18.69,4.9c-.91,2.36-4.17,7.44-6.35,9.98-5.63,6.71-11.8,11.98-20.69,11.98h-24.68c-5.44,0-9.07-1.09-12.89-4.36Z"></path><g><path class="d" d="M85.28,2.28V126.25l-21.52,1.87L22.01,46.16v85.59l-22.01,1.91V3.02l23.67-.21,41.27,84.26V2.46l20.35-.18Z"></path><path class="d" d="M116.6,119.67c-2.58-2.23-6.83-6.36-8.69-8.46-4.47-4.98-6.16-9.16-6.16-16.34V2.14l19.43-.17V94.16c0,.81,1.28,2.54,3.83,5.2,2.36,2.45,4.17,3.93,4.89,3.88l21.73-1.62c.7-.05,2.28-1.56,4.73-4.51,2.27-2.73,3.66-4.81,3.66-5.6V1.63l18.02-.16V89.69c0,5.86-1.02,9.83-4.08,14.17-2.05,2.9-5.82,7.72-7.71,9.84-4.49,5.11-8.14,7.2-14.26,7.74l-22.45,1.97c-5.44,.48-9.09-.42-12.94-3.74Z"></path><g><path class="d" d="M205.37,59.68l34.77,9.91v-20.13l-28.59-8.78c-.81-.16-1.78-1.46-1.78-3.18v-8.98c0-.76,1.3-2.71,3.4-5.24,2.26-2.72,3.71-4.08,4.35-4.09l22.31-.47c1.24-.03,7.95,9.09,12.16,13.3l12.35-12.34c-.66-1.14-5.7-6.81-6.51-7.62C251.99,6.21,247.89-.06,240.3,0l-23.1,.19c-5.65,.05-9.06,1.79-13.3,6.43-1.8,1.94-5.42,6.42-7.41,9.15-2.98,4.11-3.98,8-3.98,13.8v9.66c0,9.08,4.48,18.15,12.86,20.44Z"></path><path class="d" d="M240.13,95.02l-25.03,1.87c-1.45,.11-5.02-3.25-8.11-8.58l-16.99,6.39c.83,2.45,3.83,7.64,5.82,10.19,5.11,6.71,10.68,11.79,18.63,11.1l25.67-2.25v-18.7Z"></path></g></g></g></g></svg>